<svg width="32" height="24" viewBox="0 0 32 24" fill="none" xmlns="http://www.w3.org/2000/svg">
<path d="M29.2592 0.913086H3.70837C2.2079 0.913086 0.983765 2.057 0.983765 3.46191V20.4541C0.983765 21.8543 2.20245 23.0029 3.70837 23.0029H29.2592C30.7559 23.0029 31.9838 21.8629 31.9838 20.4541V3.46191C31.9838 2.06176 30.7651 0.913086 29.2592 0.913086ZM28.8829 2.6123L16.5415 14.1575L4.09339 2.6123H28.8829ZM2.80017 20.1022V3.80567L11.5479 11.9189L2.80017 20.1022ZM4.08455 21.3037L12.8378 13.1152L15.9049 15.9598C16.26 16.2891 16.8329 16.288 17.1865 15.9572L20.1771 13.1595L28.883 21.3037H4.08455ZM30.1674 20.1022L21.4615 11.958L30.1674 3.81377V20.1022Z" fill="white"/>
</svg>
