<svg width="31" height="32" viewBox="0 0 31 32" fill="none" xmlns="http://www.w3.org/2000/svg">
<path d="M30.9424 15.7134C30.9424 23.9634 24.2024 30.6514 15.8864 30.6514C13.2474 30.6514 10.7684 29.9764 8.61039 28.7944L0.275391 31.4414L2.99239 23.4244C1.62239 21.1744 0.833391 18.5324 0.833391 15.7124C0.834391 7.46241 7.57239 0.774414 15.8884 0.774414C24.2034 0.776414 30.9424 7.46341 30.9424 15.7134ZM15.8854 3.15641C8.90639 3.15641 3.22939 8.79041 3.22939 15.7164C3.22939 18.4644 4.12539 21.0084 5.64039 23.0784L4.06039 27.7414L8.92239 26.1964C10.9224 27.5084 13.3154 28.2724 15.8854 28.2724C22.8644 28.2724 28.5434 22.6394 28.5434 15.7134C28.5454 8.79041 22.8654 3.15641 15.8854 3.15641ZM23.4894 19.1544C23.3954 19.0034 23.1494 18.9114 22.7814 18.7274C22.4144 18.5434 20.5974 17.6584 20.2604 17.5384C19.9204 17.4154 19.6744 17.3534 19.4284 17.7204C19.1854 18.0874 18.4774 18.9114 18.2604 19.1574C18.0454 19.4024 17.8304 19.4334 17.4614 19.2524C17.0924 19.0664 15.9024 18.6824 14.4924 17.4354C13.3954 16.4634 12.6544 15.2664 12.4404 14.8994C12.2234 14.5334 12.4184 14.3354 12.6014 14.1534C12.7664 13.9884 12.9704 13.7254 13.1554 13.5104C13.3404 13.2974 13.4014 13.1464 13.5244 12.9014C13.6454 12.6564 13.5844 12.4434 13.4934 12.2584C13.4014 12.0744 12.6644 10.2744 12.3554 9.54141C12.0484 8.80941 11.7414 8.93041 11.5254 8.93041C11.3104 8.93041 11.0644 8.90041 10.8184 8.90041C10.5724 8.90041 10.1724 8.98941 9.83539 9.35641C9.49839 9.72341 8.54439 10.6084 8.54439 12.4104C8.54439 14.2144 9.86539 15.9534 10.0504 16.1974C10.2364 16.4404 12.6044 20.2594 16.3554 21.7254C20.1084 23.1904 20.1084 22.7014 20.7844 22.6394C21.4624 22.5774 22.9684 21.7544 23.2744 20.9004C23.5824 20.0424 23.5824 19.3074 23.4894 19.1544Z" fill="white"/>
</svg>
